<svg xmlns="http://www.w3.org/2000/svg" viewBox="0 0 128 128">
  <defs>
    <clipPath id="c"><circle cx="64" cy="64" r="64"/></clipPath>
    <linearGradient id="bg" x1="0" y1="0" x2="1" y2="1">
      <stop offset="0" stop-color="#c2e1f5"/>
      <stop offset="1" stop-color="#8ec7ea"/>
    </linearGradient>
  </defs>
  <g clip-path="url(#c)">
    <rect width="128" height="128" fill="url(#bg)"/>
    <path d="M64 22c-20 0-30 14-30 32 0 10 2 20 2 30l-6 44h68l-6-44c0-10 2-20 2-30 0-18-10-32-30-32z" fill="#2f2a33"/>
    <rect x="55" y="70" width="18" height="20" rx="8" fill="#e3a983"/>
    <ellipse cx="64" cy="56" rx="19" ry="22" fill="#f0bd94"/>
    <path d="M64 28c-14 0-22 10-22 24 0 3 .4 6 1 8 1-8 5-12 9-13 3-1 8-2 12-2s9 1 12 2c4 1 8 5 9 13 .6-2 1-5 1-8 0-14-8-24-22-24z" fill="#3a333f"/>
    <path d="M24 128c2-24 18-34 40-34s38 10 40 34z" fill="#0f6aa6"/>
    <path d="M56 96l8 10 8-10c-2.5-1.4-5.2-2-8-2s-5.5.6-8 2z" fill="#e3f1fb"/>
  </g>
</svg>
