<svg xmlns="http://www.w3.org/2000/svg" viewBox="0 0 192 128" font-family="Arial, sans-serif">
  <rect width="192" height="128" rx="10" fill="#fdf9f0" stroke="#d3dbe6"/>
  <path d="M0 10a10 10 0 0 1 10-10h172a10 10 0 0 1 10 10v18H0z" fill="#b45309"/>
  <text x="12" y="19" font-size="11" font-weight="bold" fill="#ffffff">FLORIDA</text>
  <text x="118" y="19" font-size="8" fill="#fde68a">DRIVER LICENSE</text>
  <rect x="12" y="38" width="46" height="58" rx="4" fill="#e2e8f0" stroke="#cbd5e1"/>
  <circle cx="35" cy="58" r="10" fill="#94a3b8"/>
  <path d="M20 92c2-9 8-13 15-13s13 4 15 13z" fill="#94a3b8"/>
  <text x="68" y="48" font-size="8" fill="#64748b">DL  S540-221-86-913-0</text>
  <text x="68" y="62" font-size="10" font-weight="bold" fill="#0f172a">SINGH, SHWETA</text>
  <text x="68" y="76" font-size="8" fill="#334155">1516 OCEAN AVE</text>
  <text x="68" y="86" font-size="8" fill="#334155">WEST PALM BEACH FL 33415</text>
  <text x="68" y="102" font-size="8" fill="#64748b">DOB 12/13/1986   EXP 12/13/2030</text>
  <rect x="12" y="104" width="168" height="8" rx="2" fill="#eaeff5"/>
</svg>
