<svg xmlns="http://www.w3.org/2000/svg" width="48.231" height="37.063" viewBox="0 0 48.231 37.063">
  <g id="Group_63" data-name="Group 63" transform="translate(0 -0.039)">
    <path id="Path_74" data-name="Path 74" d="M1081.76,261.051a18.507,18.507,0,0,1-4.839,12.487q-.577.629-1.206,1.205a18.456,18.456,0,0,1-12.487,4.839h-6.455v-6.045h6.455a12.467,12.467,0,0,0,12.487-12.487,12.641,12.641,0,0,0-.315-2.821,12.5,12.5,0,0,0-12.172-9.67h-6.455v-6.04h6.455a18.456,18.456,0,0,1,12.487,4.839c.415.38.821.782,1.2,1.2a18.444,18.444,0,0,1,4.631,9.67A18.941,18.941,0,0,1,1081.76,261.051Z" transform="translate(-1033.529 -242.481)" fill="#343434"/>
    <path id="Path_75" data-name="Path 75" d="M1114.111,278.881" transform="translate(-1066.093 -263.132)" fill="#1a1818"/>
    <rect id="Rectangle_51" data-name="Rectangle 51" width="16.976" height="6.042" transform="translate(0 15.749)" fill="#00aaf7"/>
    <rect id="Rectangle_52" data-name="Rectangle 52" width="21.603" height="6.04" transform="translate(0 0.039)" fill="#00aaf7"/>
    <rect id="Rectangle_53" data-name="Rectangle 53" width="21.603" height="6.045" transform="translate(0 31.057)" fill="#00aaf7"/>
  </g>
</svg>
